# xmcd
#
# Track frame offsets:
#	150
#	14705
#	25350
#	40342
#	53810
#	68785
#	82957
#	98037
#	112772
#	123810
#	140907
#	156545
#	167822
#	183085
#
# Disc length: 2621
#
# Revision: 1
# Processed by: cddbd v1.5.1PL0 Copyright (c) Steve Scherf et al.
# Submitted via: VisiTrax 2.9.5.180 - For more info visit www.synapsa.com
# Normalized: r0:DSETVAR1
#
DISCID=b90a3b0e
DTITLE=Various Artist - Mr. Music Country 05-94
DYEAR=1994
DGENRE=
TTITLE0=Aaron Neville - The grand tour
TTITLE1=Doyle Bates - I'm going home
TTITLE2=Ronna Reves - I'll be faithful to you
TTITLE3=John Brannen - Never say never again
TTITLE4=Bobby Mackey - Honky tonk songs
TTITLE5=Ronny Cox - Santa Ana winds
TTITLE6=Diana Murrell - If you leave me (I'll go crazy)
TTITLE7=The Normaltown Flyers - It's not working out
TTITLE8=Jeff Knight - Gettin' down in San Antone
TTITLE9=Rita Eriksen - Comin' down in the rain
TTITLE10=Statler Brothers - What we love to do
TTITLE11=Mike Harvill - See you later decatur
TTITLE12=Mark Kellogg - Rosie Flores - Cuando Tu Noestas aqui
TTITLE13=Kimmie Rhodes - No next time
EXTD=
EXTT0=
EXTT1=
EXTT2=
EXTT3=
EXTT4=
EXTT5=
EXTT6=
EXTT7=
EXTT8=
EXTT9=
EXTT10=
EXTT11=
EXTT12=
EXTT13=
PLAYORDER=
